#!OML:ASF X:\für Bonn\!DataBase\2005_08_11_Bastian_Final\c3d\Bastian.ASF
:FULLY-SPECIFIED
:DEGREES
77
root -19.4254 17.5409 0.366063 148.045 -70.3985 -154.481
lowerback 4.28965 7.28395 9.74282
upperback 3.19324 9.92983 -0.432061
thorax 2.69524 5.17918 -5.85338
lowerneck -11.4409 -7.64357 -3.76919
upperneck -10.8533 -9.87205 8.19253
head -0.903124 -5.05667 2.96607
rclavicle -1.77912e-014 -2.14687e-014
rhumerus 60.6912 2.80458 -37.423
rradius 29.0572
rwrist -3.22185
rhand -17.1162 4.17237
rfingers 7.12502
rthumb 9.12323 -25.6103
lclavicle -1.77912e-014 -2.14687e-014
lhumerus -19.7132 -15.2425 84
lradius 19.0505
lwrist 16.3989
lhand -9.98665 -6.33736
lfingers 7.12502
lthumb 15.9965 23.0222
rfemur 17.5602 -3.0145 24.4247
rtibia 29.402
rfoot -4.63844 -3.58627
rtoes -34.6549
lfemur -11.8628 -2.74391 -8.02322
ltibia 24.77
lfoot 1.2037 -6.30338
ltoes -28.5118
78
root -19.5176 17.5516 0.372454 147.407 -70.7396 -153.759
lowerback 4.28439 7.36133 9.77294
upperback 3.17516 10.0384 -0.600548
thorax 2.73564 5.24019 -6.03774
lowerneck -11.3628 -7.88522 -3.95336
upperneck -11.072 -10.1609 8.56245
head -0.939016 -5.20455 3.11785
rclavicle 1.2424e-014 -7.95139e-015
rhumerus 60.895 2.23254 -36.4677
rradius 28.0751
rwrist -3.00104
rhand -16.4253 3.82447
rfingers 7.12502
rthumb 9.78986 -25.928
lclavicle 1.2424e-014 -7.95139e-015
lhumerus -18.8839 -16.1584 83.9225
lradius 19.5514
lwrist 16.6474
lhand -10.189 -6.68236
lfingers 7.12502
lthumb 15.8017 22.6927
rfemur 17.5337 -3.6202 24.3726
rtibia 29.4544
rfoot -4.34174 -3.40396
rtoes -34.6858
lfemur -11.7766 -2.86829 -8.14918
ltibia 24.9038
lfoot 1.01485 -6.53905
ltoes -27.827
79
root -19.6072 17.5614 0.378546 146.799 -71.1027 -153.061
lowerback 4.26619 7.44304 9.78114
upperback 3.1719 10.1497 -0.777724
thorax 2.79794 5.30372 -6.21602
lowerneck -11.2943 -8.12879 -4.15154
upperneck -11.3036 -10.4506 8.936
head -0.97503 -5.35305 3.27394
rclavicle -1.09282e-013 6.36111e-015
rhumerus 61.0206 1.65269 -35.4058
rradius 27.1954
rwrist -2.89248
rhand -15.7309 3.49215
rfingers 7.12502
rthumb 10.4598 -26.2276
lclavicle -1.09282e-013 6.36111e-015
lhumerus -18.0212 -16.9687 83.8168
lradius 20.0571
lwrist 16.7817
lhand -10.3767 -7.07496
lfingers 7.12502
lthumb 15.6209 22.3143
rfemur 17.5143 -4.18784 24.309
rtibia 29.418
rfoot -4.15966 -3.03112
rtoes -34.0852
lfemur -11.7241 -2.92017 -8.29934
ltibia 25.0728
lfoot 0.781388 -6.87935
ltoes -27.3379
80
root -19.6945 17.5708 0.383973 146.055 -71.4714 -152.246
lowerback 4.28825 7.51677 9.81218
upperback 3.16179 10.2552 -0.951672
thorax 2.83401 5.36345 -6.40997
lowerneck -11.2289 -8.37235 -4.34769
upperneck -11.5302 -10.7404 9.3077
head -1.00747 -5.50171 3.42933
rclavicle 3.46879e-014 1.27222e-014
rhumerus 61.0314 1.07981 -34.3448
rradius 26.4176
rwrist -2.7415
rhand -15.0289 3.13044
rfingers 7.12502
rthumb 11.1368 -26.554
lclavicle 3.46879e-014 1.27222e-014
lhumerus -17.1636 -17.6721 83.6989
lradius 20.5554
lwrist 16.8397
lhand -10.522 -7.48852
lfingers 7.12502
lthumb 15.4809 21.9116
rfemur 17.5289 -4.6757 24.3152
rtibia 29.332
rfoot -4.08263 -2.5761
rtoes -33.1427
lfemur -11.6488 -2.98533 -8.41235
ltibia 25.2301
lfoot 0.558379 -7.21283
ltoes -26.7898
81
root -19.7789 17.5803 0.388308 145.384 -71.8332 -151.487
lowerback 4.30381 7.59878 9.79627
upperback 3.14238 10.3701 -1.11581
thorax 2.85565 5.42552 -6.56861
lowerneck -11.2445 -8.62596 -4.58597
upperneck -11.6792 -11.0391 9.67699
head -0.996321 -5.64979 3.58407
rclavicle 7.7526e-015 -6.36111e-015
rhumerus 60.9704 0.571052 -33.2469
rradius 25.7254
rwrist -2.60561
rhand -14.4508 2.76808
rfingers 7.12502
rthumb 11.6944 -26.8855
lclavicle 7.7526e-015 -6.36111e-015
lhumerus -16.3536 -18.3127 83.603
lradius 21.1309
lwrist 16.9326
lhand -10.6683 -7.83494
lfingers 7.12502
lthumb 15.34 21.5761
rfemur 17.508 -5.11907 24.3117
rtibia 29.2135
rfoot -4.12196 -2.02444
rtoes -31.8714
lfemur -11.5879 -3.06243 -8.53424
ltibia 25.3786
lfoot 0.339108 -7.52766
ltoes -26.3288
